<?xml version="1.0" encoding="utf-8"?>
<!-- Generator: Adobe Illustrator 16.0.4, SVG Export Plug-In . SVG Version: 6.00 Build 0)  -->
<!DOCTYPE svg PUBLIC "-//W3C//DTD SVG 1.1//EN" "http://www.w3.org/Graphics/SVG/1.1/DTD/svg11.dtd">
<svg version="1.1" id="Layer_1" xmlns="http://www.w3.org/2000/svg" xmlns:xlink="http://www.w3.org/1999/xlink" x="0px" y="0px"
	 width="722px" height="282.129px" viewBox="0 0 722 282.129" enable-background="new 0 0 722 282.129" xml:space="preserve">
<g>
	<path fill="#0082FF" d="M18.286,38.596h31.029l7.596,59.148l15.353-59.148H94.89l16.161,58.825l6.464-58.825h31.352L136.908,119.4
		H94.89L83.576,80.776L72.587,119.4H31.215L18.286,38.596z"/>
	<path fill="#0082FF" d="M244.689,86.271l-50.099,0.323c0.323,16.322,4.364,16.646,14.222,16.646c4.04,0,15.837-0.808,31.352-1.939
		v15.838c-13.737,2.101-27.15,3.716-39.11,3.716c-32.806,0-38.139-10.343-38.139-42.018c0-32.483,4.525-42.018,41.21-42.018
		c33.292,0,40.563,9.535,40.563,41.857V86.271z M194.591,68.817h19.878c-0.323-12.929-1.94-13.899-10.343-13.899
		C194.591,55.081,194.591,60.09,194.591,68.817z"/>
	<path fill="#0082FF" d="M301.245,120.694c-8.565,0-25.05-1.293-38.786-2.909V9.83h31.675v31.029
		c30.382-9.696,48.16,1.778,48.16,32.807C342.293,106.472,338.738,120.694,301.245,120.694z M303.185,57.666
		c-2.102,0-5.01,0.485-8.89,1.616v43.149h7.273h-0.646c9.211,0,9.373-8.888,9.373-27.312
		C310.294,61.706,310.133,57.666,303.185,57.666z"/>
</g>
<g>
	<path fill="#00DE0E" d="M100.433,242.514h-26.99l-2.587-6.949c-21.816,14.545-50.743,10.182-51.227-19.393
		c-0.163-23.271,25.855-20.847,48.803-20.524v-10.99c0-5.333-2.099-6.787-5.17-6.787c-10.021,0-10.342-0.162-33.778,0.97
		l-4.522-15.515c16.322-2.585,29.414-3.233,40.888-3.233c23.269,0,34.583,4.041,34.583,23.918V242.514z M68.432,210.193
		c-11.795,1.131-17.127-0.646-17.127,6.95c0,9.696,13.573,4.686,17.453,3.071L68.432,210.193z"/>
	<path fill="#00DE0E" d="M162.318,242.353c-11.312,1.455-12.442,1.455-13.898,1.455c-15.997,0-27.633-4.688-27.633-24.727v-84.521
		h32.481v87.106c0,3.395,0,6.303,9.05,7.596V242.353z"/>
	<path fill="#00DE0E" d="M221.302,225.546c6.947,0,21.816-0.809,31.029-1.455v15.514c-11.961,2.586-27.958,4.364-37.817,4.364
		c-28.121,0-40.403-4.04-40.403-38.14c0-34.261,3.717-45.735,36.361-45.735c-0.969,0,23.272,0.808,40.888,3.233v17.292
		c-17.615-1.131-32.322-2.101-34.906-2.101c-9.858,0-10.183,4.849-10.183,27.797C206.271,222.637,211.927,225.546,221.302,225.546z"
		/>
	<path fill="#00DE0E" d="M320.682,242.514v-57.37c0-8.404-10.021-6.141-17.131-3.071v60.441h-32.159V134.237h31.997v30.544
		c5.336-2.424,14.707-4.202,20.687-4.202c19.392,0,28.604,7.272,28.604,21.493v60.441H320.682z"/>
	<path fill="#00DE0E" d="M453.19,209.385l-50.097,0.324c0.322,16.321,4.361,16.645,14.22,16.645c4.042,0,15.838-0.807,31.354-1.939
		v15.838c-13.738,2.101-27.152,3.717-39.11,3.717c-32.807,0-38.139-10.343-38.139-42.018c0-32.484,4.524-42.018,41.21-42.018
		c33.29,0,40.562,9.534,40.562,41.857V209.385z M403.094,191.932h19.878c-0.325-12.929-1.94-13.898-10.343-13.898
		C403.094,178.195,403.094,183.205,403.094,191.932z"/>
	<path fill="#00DE0E" d="M567.926,242.514v-56.562c0-9.373-8.403-6.142-15.676-3.879c0,19.07,0.162,41.534,0.162,60.441h-32.321
		v-57.693c0-7.92-11.474-3.393-16.484-1.778v59.471h-32.484v-80.642h27.152l2.585,5.979c4.523-2.424,12.279-7.272,22.623-7.272
		c7.597,0,14.706,3.07,21.011,7.596c7.11-2.586,14.867-7.596,26.828-7.596c18.909,0,28.926,7.272,28.926,21.332v60.603H567.926z"/>
	<path fill="#00DE0E" d="M680.88,270.958h-33.776l8.725-28.444h-21.492l-22.303-80.804h33.293l14.704,62.704l14.706-62.704h32.486
		L680.88,270.958z"/>
</g>
<g>
	<g>
		<path d="M426.897,76.585c0,0-0.171,0.855-0.43,2.139c-0.134,0.642-0.196,1.399-0.311,2.198c-0.1,0.8-0.114,1.667-0.147,2.518
			c0.003,1.713,0.306,3.37,0.72,4.503c0.275,0.533,0.421,1.015,0.648,1.274c0.191,0.279,0.299,0.438,0.299,0.438
			s0.042,0.087,0.134,0.242c0.11,0.14,0.273,0.346,0.48,0.608c0.193,0.278,0.539,0.507,0.873,0.839
			c0.405,0.246,0.83,0.579,1.395,0.794c1.089,0.489,2.521,0.796,4.097,0.845c1.576,0.055,3.285-0.125,4.968-0.462
			c3.369-0.683,6.623-1.986,8.879-3.266c1.128-0.641,2.015-1.276,2.554-1.811c0.248-0.281,0.469-0.493,0.55-0.682
			c0.1-0.177,0.154-0.272,0.154-0.272s-0.048,0.098-0.138,0.281c-0.071,0.197-0.277,0.422-0.513,0.724
			c-0.511,0.575-1.367,1.271-2.467,1.99c-2.203,1.435-5.403,2.957-8.824,3.874c-1.709,0.454-3.473,0.755-5.165,0.8
			c-1.689,0.051-3.311-0.177-4.64-0.676c-0.677-0.216-1.238-0.58-1.752-0.865c-0.453-0.376-0.899-0.659-1.173-0.989
			c-0.285-0.321-0.508-0.572-0.661-0.744c-0.13-0.187-0.192-0.292-0.191-0.292c0,0-0.112-0.216-0.308-0.595
			c-0.229-0.364-0.352-0.957-0.584-1.625c-0.322-1.378-0.408-3.214-0.194-4.985c0.144-0.879,0.267-1.756,0.469-2.56
			c0.218-0.799,0.376-1.554,0.589-2.173C426.623,77.414,426.897,76.585,426.897,76.585z"/>
	</g>
	<g>
		<path fill="none" stroke="#000000" stroke-miterlimit="10" d="M431.865,95.781"/>
	</g>
	<g>
		<path d="M431.546,93.497c0,0-0.29,1.756-0.898,4.357c-0.609,2.6-1.531,6.046-2.62,9.445c-1.085,3.398-2.314,6.756-3.32,9.242
			c-0.496,1.247-0.941,2.272-1.239,2.997c-0.314,0.716-0.494,1.126-0.494,1.126s-0.402,0.799-1.106,2.197
			c-0.366,0.692-0.812,1.531-1.321,2.495c-0.538,0.948-1.124,2.029-1.801,3.187c-2.696,4.634-6.642,10.625-11.257,16.081
			c-4.562,5.5-9.81,10.38-13.996,13.691c-2.106,1.64-3.892,2.969-5.198,3.817c-1.29,0.87-2.026,1.368-2.026,1.368
			s0.722-0.52,1.984-1.428c1.277-0.886,3.02-2.268,5.069-3.965c4.073-3.427,9.142-8.437,13.499-14.025
			c4.412-5.548,8.135-11.591,10.661-16.25c0.633-1.164,1.181-2.249,1.684-3.201c0.475-0.966,0.888-1.809,1.229-2.503
			c0.653-1.401,1.027-2.202,1.027-2.202s0.202-0.393,0.555-1.081c0.336-0.697,0.837-1.682,1.4-2.883
			c1.143-2.395,2.558-5.642,3.839-8.949c1.284-3.305,2.409-6.674,3.172-9.228C431.15,95.232,431.546,93.497,431.546,93.497z"/>
	</g>
	<g>
		<path d="M707.223,161.71c0,0-0.578-0.021-1.659-0.06c-0.54-0.019-1.205-0.042-1.988-0.071c-0.784-0.038-1.687-0.028-2.689-0.154
			c-4.021-0.361-9.764-1.01-16.571-2.283c-13.648-2.382-31.597-6.782-49.408-11.635c-17.82-4.838-35.496-10.184-48.728-14.26
			c-6.607-2.071-12.112-3.798-15.965-5.006c-3.851-1.222-6.051-1.92-6.051-1.92s-4.38-1.456-12.043-4.004
			c-7.654-2.582-18.591-6.26-31.664-10.817c-13.076-4.551-28.306-9.931-44.563-15.864c-8.131-2.959-16.516-6.065-25.019-9.27
			c-4.25-1.604-8.53-3.233-12.812-4.911c-2.144-0.832-4.284-1.687-6.422-2.561c-1.067-0.441-2.136-0.875-3.2-1.366
			c-1.051-0.47-2.093-0.974-3.146-1.413c-8.486-3.561-17.12-6.866-25.534-10.283c-8.429-3.391-16.695-6.802-24.647-10.215
			c-15.908-6.816-30.558-13.654-42.796-20.134c-6.122-3.235-11.638-6.378-16.436-9.316c-4.792-2.948-8.828-5.74-12.089-8.12
			c-1.585-1.251-3.047-2.31-4.235-3.334c-1.185-1.027-2.236-1.852-3.013-2.605c-1.572-1.486-2.41-2.279-2.41-2.279
			s0.842,0.788,2.422,2.264c0.781,0.749,1.836,1.567,3.027,2.587c1.193,1.017,2.662,2.066,4.252,3.308
			c3.273,2.361,7.322,5.126,12.128,8.044c4.811,2.909,10.343,6.016,16.478,9.213c12.267,6.405,26.946,13.152,42.884,19.872
			c7.967,3.365,16.25,6.726,24.695,10.066c8.438,3.37,17.064,6.612,25.617,10.144c1.079,0.443,2.117,0.938,3.174,1.404
			c1.035,0.47,2.104,0.897,3.17,1.331c2.133,0.857,4.275,1.699,6.42,2.518c4.286,1.65,8.573,3.253,12.83,4.832
			c8.516,3.153,16.916,6.209,25.061,9.12c16.285,5.836,31.541,11.125,44.636,15.598c13.095,4.479,24.046,8.091,31.709,10.627
			c7.675,2.501,12.06,3.931,12.06,3.931s2.19,0.723,6.021,1.989c3.838,1.252,9.318,3.042,15.896,5.188
			c13.177,4.228,30.775,9.774,48.523,14.816c17.738,5.055,35.62,9.659,49.225,12.198c6.788,1.351,12.513,2.065,16.527,2.473
			c1.001,0.137,1.905,0.138,2.686,0.186c0.783,0.037,1.45,0.069,1.99,0.094C706.645,161.683,707.223,161.71,707.223,161.71z"/>
	</g>
	<g>
		<path d="M445.831,90.532c0,0,2.033,2.112,5.224,5.129c3.184,3.026,7.539,6.94,12.009,10.716
			c4.465,3.782,9.058,7.404,12.552,10.051c1.745,1.327,3.209,2.418,4.248,3.163c1.033,0.753,1.624,1.184,1.624,1.184
			s0.289,0.223,0.831,0.639c0.55,0.409,1.355,1.009,2.38,1.772c1.018,0.771,2.272,1.686,3.724,2.715
			c0.725,0.518,1.495,1.069,2.306,1.65c0.824,0.565,1.688,1.159,2.592,1.779c7.21,4.974,17.167,11.147,27.648,16.339
			c5.224,2.628,10.609,4.915,15.71,6.921c2.582,0.922,5.049,1.897,7.457,2.622c1.198,0.384,2.363,0.759,3.489,1.12
			c1.141,0.314,2.241,0.619,3.298,0.911c1.061,0.281,2.067,0.595,3.044,0.813c0.975,0.223,1.898,0.434,2.77,0.633
			c0.87,0.199,1.685,0.385,2.436,0.557c0.761,0.138,1.457,0.265,2.087,0.379c2.523,0.452,3.965,0.709,3.965,0.709
			s-1.446-0.231-3.978-0.637c-0.634-0.103-1.332-0.217-2.097-0.341c-0.755-0.159-1.573-0.33-2.447-0.513s-1.804-0.377-2.786-0.582
			c-0.98-0.201-1.992-0.498-3.06-0.76c-1.066-0.272-2.175-0.557-3.325-0.851c-1.135-0.342-2.309-0.695-3.515-1.059
			c-2.429-0.682-4.92-1.614-7.527-2.492c-5.153-1.918-10.603-4.115-15.897-6.657c-10.617-5.021-20.739-11.041-28.08-15.907
			c-0.918-0.607-1.8-1.188-2.637-1.742c-0.827-0.569-1.612-1.109-2.35-1.616c-1.478-1.008-2.756-1.905-3.794-2.662
			c-1.045-0.748-1.865-1.336-2.424-1.738c-0.554-0.41-0.85-0.627-0.85-0.627s-0.576-0.454-1.586-1.249
			c-1.016-0.788-2.448-1.937-4.149-3.334c-3.412-2.787-7.886-6.59-12.22-10.543c-4.341-3.948-8.557-8.027-11.63-11.171
			C447.785,92.717,445.831,90.532,445.831,90.532z"/>
	</g>
	<g>
		<path d="M426.157,88.106l-40.353,22.626c0,0-5.11,2.703-12.837,6.649c-7.716,3.964-18.003,9.25-28.292,14.536
			c-20.572,10.57-41.144,21.14-41.144,21.14s20.372-10.951,40.745-21.901c10.185-5.474,20.368-10.949,28.006-15.055
			c7.647-4.086,12.708-6.885,12.708-6.884L426.157,88.106z"/>
	</g>
	<g>
		<path d="M407.19,68.399c2.396,4.234,4.345,8.751,5.563,13.507c0.586,2.381,0.986,4.833,0.947,7.329
			c-0.011,2.485-0.541,5.041-1.989,7.184c-0.047-0.281-0.096-0.563-0.168-0.776c1.396,0.492,2.784,1.03,4.141,1.682
			c1.348,0.67,2.661,1.462,3.858,2.438c0.979,0.83,1.8,1.84,2.542,2.88c0.71,1.067,1.305,2.202,1.764,3.379
			c0.942,2.351,1.415,4.814,1.773,7.252c-0.367-0.165-0.734-0.331-1.112-0.512c5.21-3.04,10.487-6.134,16.263-8.157
			c2.878-1.013,5.881-1.691,8.913-2.006c3.034-0.316,6.091-0.264,9.123-0.096c-0.068,0.064-0.136,0.129-0.232,0.155
			c0.918-0.537,1.801-1.137,2.747-1.615l1.457-0.645l0.728-0.321c0.247-0.096,0.505-0.16,0.757-0.241
			c1.017-0.299,2.016-0.659,3.063-0.814l1.553-0.301c0.518-0.094,1.044-0.127,1.567-0.193c4.183-0.471,8.386-0.44,12.578-0.451
			c-4.19,0.114-8.395,0.188-12.538,0.757c-0.516,0.079-1.038,0.123-1.55,0.229l-1.527,0.336c-1.031,0.178-2.004,0.556-2.993,0.874
			c-0.245,0.086-0.497,0.154-0.735,0.254l-0.705,0.333l-1.406,0.663c-0.911,0.49-1.757,1.098-2.638,1.638l-0.051,0.031l-0.139-0.011
			c-2.994-0.234-6.006-0.212-8.973,0.17c-2.965,0.378-5.878,1.111-8.671,2.17c-5.599,2.113-10.738,5.288-15.863,8.446l-0.844,0.521
			l-0.156-1.031c-0.355-2.363-0.876-4.708-1.805-6.854c-0.452-1.078-1.021-2.091-1.682-3.031c-0.692-0.915-1.436-1.792-2.336-2.511
			c-1.023-0.93-2.186-1.725-3.421-2.423c-1.247-0.683-2.558-1.276-3.893-1.828l-0.756-0.313l0.406-0.657
			c1.207-1.947,1.828-4.274,1.944-6.642c0.147-2.372-0.127-4.78-0.595-7.144C411.118,77.327,409.388,72.735,407.19,68.399z"/>
	</g>
	<g>
		<path d="M386.472,60.011c1.538,3.782,2.826,7.665,3.941,11.597c1.111,3.934,2.008,7.933,2.619,11.987
			c0.586,4.054,0.898,8.173,0.608,12.297c-0.278,4.107-1.207,8.274-3.493,11.844c-0.013-0.263-0.027-0.527-0.078-0.727
			c4.406,2.524,8.9,4.92,13.102,7.954c2.989,2.331,5.738,5.146,7.628,8.493c1.939,3.31,3.21,6.918,4.232,10.533
			c-0.352-0.144-0.703-0.287-1.062-0.445c5.357-2.645,10.898-4.866,16.539-6.772c5.645-1.899,11.396-3.475,17.234-4.651
			c5.839-1.15,11.772-1.907,17.734-1.985c5.944-0.063,11.974,0.534,17.68,2.361c-0.118,0.098-0.235,0.196-0.405,0.276
			c1.029-2.78,2.805-5.252,5.015-7.187c2.208-1.948,4.803-3.396,7.513-4.477c5.449-2.144,11.316-2.954,17.12-3.06
			c-5.802,0.192-11.646,1.093-17.021,3.302c-2.672,1.112-5.212,2.583-7.35,4.525c-2.138,1.932-3.826,4.363-4.786,7.076l-0.067,0.19
			l-0.222-0.074c-5.605-1.878-11.576-2.388-17.463-2.243c-5.904,0.16-11.778,0.992-17.558,2.214
			c-5.776,1.249-11.465,2.893-17.037,4.854c-5.567,1.969-11.03,4.25-16.275,6.931l-0.716,0.367l-0.235-0.826
			c-1.012-3.547-2.307-7.019-4.193-10.121c-1.841-3.138-4.442-5.717-7.348-7.917c-3.949-3.048-8.363-5.595-12.688-8.253
			l-0.585-0.359l0.337-0.556c2.049-3.376,3.075-7.351,3.452-11.353c0.393-4.016,0.199-8.092-0.273-12.125
			c-0.496-4.035-1.279-8.039-2.28-11.99C389.086,67.744,387.907,63.832,386.472,60.011z"/>
	</g>
	<g>
		<path d="M347.091,42.807c3.492,6.026,6.597,12.274,9.418,18.645c2.805,6.377,5.291,12.906,7.24,19.604
			c1.951,6.691,3.36,13.579,3.692,20.577c0.12,3.496-0.049,7.017-0.695,10.473c-0.645,3.449-1.787,6.839-3.7,9.824
			c-0.027-0.167-0.054-0.334-0.098-0.46c4.393,1.598,8.916,2.998,13.259,4.864c5.545,2.401,10.9,5.415,15.47,9.446
			c2.26,2.031,4.339,4.289,6.038,6.821c1.701,2.527,3.06,5.288,4.028,8.177c-0.172-0.075-0.345-0.149-0.521-0.233
			c18.42-7.044,37.769-11.845,57.451-13.35c19.635-1.496,39.699,0.335,58.371,6.789c-0.054,0.053-0.105,0.106-0.189,0.154
			c0.719-3.342,1.394-6.697,2.229-10.017c0.857-3.291,1.888-6.663,4.048-9.372c0.613-0.601,1.139-1.298,1.862-1.774
			c0.345-0.254,0.671-0.537,1.032-0.767l1.122-0.628l0.561-0.313l0.595-0.244l1.19-0.487c0.796-0.31,1.633-0.511,2.447-0.771
			c3.313-0.871,6.711-1.325,10.104-1.741c-3.391,0.435-6.786,0.907-10.089,1.794c-0.812,0.265-1.646,0.47-2.438,0.783l-1.184,0.492
			l-0.591,0.246l-0.557,0.315l-1.111,0.63c-0.357,0.23-0.68,0.513-1.021,0.767c-0.716,0.476-1.232,1.171-1.836,1.769
			c-2.125,2.696-3.135,6.054-3.972,9.342c-0.816,3.317-1.471,6.675-2.173,10.021l-0.021,0.097l-0.103-0.036
			c-18.643-6.442-38.667-8.169-58.241-6.583c-19.623,1.597-38.888,6.478-57.214,13.588l-0.336,0.13l-0.124-0.374
			c-0.938-2.828-2.278-5.516-3.953-7.975c-1.673-2.464-3.72-4.661-5.946-6.64c-4.502-3.927-9.792-6.871-15.294-9.217
			c-4.282-1.903-8.738-3.342-13.164-5.015l-0.444-0.167l0.243-0.404c1.773-2.942,2.922-6.236,3.585-9.615
			c0.667-3.385,0.87-6.858,0.783-10.32c-0.263-6.932-1.597-13.801-3.479-20.489c-1.881-6.696-4.301-13.238-7.042-19.635
			C353.569,55.141,350.525,48.865,347.091,42.807z"/>
	</g>
</g>
<g>
</g>
<g>
</g>
<g>
</g>
<g>
</g>
<g>
</g>
<g>
</g>
</svg>
